ffmpeg started on 2025-06-27 at 12:07:19
Report written to "D:\Convert\FFMetrics\reports\psnr_report-6.txt"
Log level: 32
Command line:
ffmpeg -hide_banner -nostdin -i "G:\\\xc0\xed\xe8\xec\xe5\\[\xd2\xee\xef]\\\xcf\xee\xe2\xe5\xeb\xe8\xf2\xe5\xeb\xfc\\\xd2\xc2-3\\Special\\[Ohys-Raws] Overlord III - Sp.03 (BDRip-720p)_HEVC.mkv" -i "G:\\\xc0\xed\xe8\xec\xe5\\[\xd2\xee\xef]\\\xcf\xee\xe2\xe5\xeb\xe8\xf2\xe5\xeb\xfc\\\xd2\xc2-3\\Special\\[Ohys-Raws] Overlord III - Sp.03 (BDRip-720p).mkv" -lavfi "[0:v]settb=AVTB,setpts=PTS-STARTPTS,format=pix_fmts=yuv420p10,fps=24000/1001,scale=1280:720:flags=bicubic[main];[1:v]settb=AVTB,setpts=PTS-STARTPTS,format=pix_fmts=yuv420p,fps=24000/1001,scale=1280:720:flags=bicubic[ref];[main][ref]psnr=eof_action=endall:stats_file='D\\:/Convert/FFMetrics/logs/psnr_logfile-6.txt'" -f null -
Input #0, matroska,webm, from 'G:\Аниме\[Топ]\Повелитель\ТВ-3\Special\[Ohys-Raws] Overlord III - Sp.03 (BDRip-720p)_HEVC.mkv':
  Metadata:
    ENCODER         : Lavf61.7.100
  Duration: 00:01:32.13, start: -0.011000, bitrate: 539 kb/s
  Stream #0:0(jpn): Video: hevc (Main 10), yuv420p10le(tv, bt709, progressive), 1280x720 [SAR 1:1 DAR 16:9], 23.98 fps, 23.98 tbr, 1k tbn (default)
      Metadata:
        ENCODER         : Lavc61.19.100 libx265
        BPS             : 340451
        DURATION        : 00:01:32.091708333
        NUMBER_OF_FRAMES: 2208
        NUMBER_OF_BYTES : 3919066
        _STATISTICS_WRITING_APP: mkvpropedit v66.0.0 ('Josie') 64-bit
        _STATISTICS_WRITING_DATE_UTC: 2025-06-27 08:30:09
        _STATISTICS_TAGS: BPS DURATION NUMBER_OF_FRAMES NUMBER_OF_BYTES
  Stream #0:1(jpn): Audio: aac (LC), 48000 Hz, stereo, fltp (default)
      Metadata:
        ENCODER         : Lavc61.19.100 aac
        BPS             : 194467
        DURATION        : 00:01:32.095000000
        NUMBER_OF_FRAMES: 4318
        NUMBER_OF_BYTES : 2238683
        _STATISTICS_WRITING_APP: mkvpropedit v66.0.0 ('Josie') 64-bit
        _STATISTICS_WRITING_DATE_UTC: 2025-06-27 08:30:09
        _STATISTICS_TAGS: BPS DURATION NUMBER_OF_FRAMES NUMBER_OF_BYTES
Input #1, matroska,webm, from 'G:\Аниме\[Топ]\Повелитель\ТВ-3\Special\[Ohys-Raws] Overlord III - Sp.03 (BDRip-720p).mkv':
  Metadata:
    encoder         : libebml v1.2.3 + libmatroska v1.3.0
    creation_time   : 2019-10-11T20:56:26.000000Z
  Duration: 00:01:32.11, start: 0.000000, bitrate: 1133 kb/s
  Stream #1:0(jpn): Video: h264 (Main), yuv420p(progressive), 1280x720 [SAR 1:1 DAR 16:9], 23.98 fps, 23.98 tbr, 1k tbn (default)
  Stream #1:1(jpn): Audio: aac (LC), 48000 Hz, stereo, fltp (default)
Stream mapping:
  Stream #0:0 (hevc) -> settb:default
  Stream #1:0 (h264) -> settb:default
  psnr:default -> Stream #0:0 (wrapped_avframe)
  Stream #0:1 -> #0:1 (aac (native) -> pcm_s16le (native))
[swscaler @ 000001a8af63bf80] No accelerated colorspace conversion found from yuv420p to bgr48le.
[swscaler @ 000001a8af8171c0] No accelerated colorspace conversion found from yuv420p to bgr48le.
[swscaler @ 000001a8af8ba980] No accelerated colorspace conversion found from yuv420p to bgr48le.
[swscaler @ 000001a8af9c7980] No accelerated colorspace conversion found from yuv420p to bgr48le.
[swscaler @ 000001a8afb5f880] No accelerated colorspace conversion found from yuv420p to bgr48le.
[swscaler @ 000001a8afcf3f40] No accelerated colorspace conversion found from yuv420p to bgr48le.
[swscaler @ 000001a8afe3a040] No accelerated colorspace conversion found from yuv420p to bgr48le.
[swscaler @ 000001a8aff0ab40] No accelerated colorspace conversion found from yuv420p to bgr48le.
[swscaler @ 000001a8afff7040] No accelerated colorspace conversion found from yuv420p to bgr48le.
[swscaler @ 000001a8b0067040] No accelerated colorspace conversion found from yuv420p to bgr48le.
[swscaler @ 000001a8b00c7040] No accelerated colorspace conversion found from yuv420p to bgr48le.
[swscaler @ 000001a8b0122040] No accelerated colorspace conversion found from yuv420p to bgr48le.
[swscaler @ 000001a8b015c000] No accelerated colorspace conversion found from yuv420p to bgr48le.
[swscaler @ 000001a8b01ccf00] No accelerated colorspace conversion found from yuv420p to bgr48le.
[swscaler @ 000001a8b0242080] No accelerated colorspace conversion found from yuv420p to bgr48le.
[swscaler @ 000001a8b02e6040] No accelerated colorspace conversion found from yuv420p to bgr48le.
Output #0, null, to 'pipe:':
  Metadata:
    encoder         : Lavf61.7.100
  Stream #0:0: Video: wrapped_avframe, yuv420p10le(tv, bt709, progressive), 1280x720 [SAR 1:1 DAR 16:9], q=2-31, 200 kb/s, 23.98 fps, 23.98 tbn
      Metadata:
        encoder         : Lavc61.19.100 wrapped_avframe
  Stream #0:1(jpn): Audio: pcm_s16le, 48000 Hz, stereo, s16, 1536 kb/s (default)
      Metadata:
        _STATISTICS_TAGS: BPS DURATION NUMBER_OF_FRAMES NUMBER_OF_BYTES
        BPS             : 194467
        DURATION        : 00:01:32.095000000
        NUMBER_OF_FRAMES: 4318
        NUMBER_OF_BYTES : 2238683
        _STATISTICS_WRITING_APP: mkvpropedit v66.0.0 ('Josie') 64-bit
        _STATISTICS_WRITING_DATE_UTC: 2025-06-27 08:30:09
        encoder         : Lavc61.19.100 pcm_s16le
frame=   77 fps=0.0 q=-0.0 size=N/A time=00:00:03.21 bitrate=N/A speed=6.15x    frame=  169 fps=165 q=-0.0 size=N/A time=00:00:07.04 bitrate=N/A speed=6.86x    frame=  263 fps=169 q=-0.0 size=N/A time=00:00:10.96 bitrate=N/A speed=7.07x    frame=  357 fps=172 q=-0.0 size=N/A time=00:00:14.88 bitrate=N/A speed=7.19x    frame=  448 fps=174 q=-0.0 size=N/A time=00:00:18.68 bitrate=N/A speed=7.25x    frame=  543 fps=175 q=-0.0 size=N/A time=00:00:22.64 bitrate=N/A speed= 7.3x    frame=  635 fps=176 q=-0.0 size=N/A time=00:00:26.48 bitrate=N/A speed=7.34x    frame=  728 fps=176 q=-0.0 size=N/A time=00:00:30.36 bitrate=N/A speed=7.35x    frame=  820 fps=177 q=-0.0 size=N/A time=00:00:34.20 bitrate=N/A speed=7.36x    frame=  912 fps=177 q=-0.0 size=N/A time=00:00:38.03 bitrate=N/A speed=7.38x    frame= 1005 fps=177 q=-0.0 size=N/A time=00:00:41.91 bitrate=N/A speed=7.38x    frame= 1089 fps=176 q=-0.0 size=N/A time=00:00:45.42 bitrate=N/A speed=7.34x    frame= 1191 fps=178 q=-0.0 size=N/A time=00:00:49.67 bitrate=N/A speed=7.42x    frame= 1288 fps=178 q=-0.0 size=N/A time=00:00:53.72 bitrate=N/A speed=7.44x    frame= 1378 fps=178 q=-0.0 size=N/A time=00:00:57.47 bitrate=N/A speed=7.44x    frame= 1476 fps=179 q=-0.0 size=N/A time=00:01:01.56 bitrate=N/A speed=7.46x    frame= 1568 fps=179 q=-0.0 size=N/A time=00:01:05.39 bitrate=N/A speed=7.46x    frame= 1664 fps=179 q=-0.0 size=N/A time=00:01:09.40 bitrate=N/A speed=7.47x    frame= 1755 fps=179 q=-0.0 size=N/A time=00:01:13.19 bitrate=N/A speed=7.47x    frame= 1841 fps=179 q=-0.0 size=N/A time=00:01:16.78 bitrate=N/A speed=7.45x    frame= 1944 fps=179 q=-0.0 size=N/A time=00:01:21.08 bitrate=N/A speed=7.48x    frame= 2035 fps=179 q=-0.0 size=N/A time=00:01:24.87 bitrate=N/A speed=7.48x    frame= 2128 fps=180 q=-0.0 size=N/A time=00:01:28.75 bitrate=N/A speed=7.49x    [Parsed_psnr_10 @ 000001a8a31a1b00] PSNR y:44.446530 u:48.010515 v:48.059582 average:45.347978 min:41.407945 max:55.922613
[out#0/null @ 000001a8a321e9c0] video:949KiB audio:17272KiB subtitle:0KiB other streams:0KiB global headers:0KiB muxing overhead: unknown
frame= 2208 fps=180 q=-0.0 Lsize=N/A time=00:01:32.09 bitrate=N/A speed= 7.5x    
